<svg width="40" height="40" viewBox="0 0 40 40" fill="none" xmlns="http://www.w3.org/2000/svg">
<rect width="40" height="40" rx="8" fill="#3772FF" fill-opacity="0.1"/>
<mask id="path-2-inside-1_3653_9359" fill="white">
<path d="M20 26.5C20.1978 26.5 20.3911 26.4414 20.5556 26.3315C20.72 26.2216 20.8482 26.0654 20.9239 25.8827C20.9996 25.7 21.0194 25.4989 20.9808 25.3049C20.9422 25.1109 20.847 24.9327 20.7071 24.7929C20.5673 24.653 20.3891 24.5578 20.1951 24.5192C20.0011 24.4806 19.8 24.5004 19.6173 24.5761C19.4346 24.6518 19.2784 24.78 19.1685 24.9444C19.0586 25.1089 19 25.3022 19 25.5C19 25.7652 19.1054 26.0196 19.2929 26.2071C19.4804 26.3946 19.7348 26.5 20 26.5ZM25 26.5C25.1978 26.5 25.3911 26.4414 25.5556 26.3315C25.72 26.2216 25.8482 26.0654 25.9239 25.8827C25.9996 25.7 26.0194 25.4989 25.9808 25.3049C25.9422 25.1109 25.847 24.9327 25.7071 24.7929C25.5673 24.653 25.3891 24.5578 25.1951 24.5192C25.0011 24.4806 24.8 24.5004 24.6173 24.5761C24.4346 24.6518 24.2784 24.78 24.1685 24.9444C24.0586 25.1089 24 25.3022 24 25.5C24 25.7652 24.1054 26.0196 24.2929 26.2071C24.4804 26.3946 24.7348 26.5 25 26.5ZM25 22.5C25.1978 22.5 25.3911 22.4414 25.5556 22.3315C25.72 22.2216 25.8482 22.0654 25.9239 21.8827C25.9996 21.7 26.0194 21.4989 25.9808 21.3049C25.9422 21.1109 25.847 20.9327 25.7071 20.7929C25.5673 20.653 25.3891 20.5578 25.1951 20.5192C25.0011 20.4806 24.8 20.5004 24.6173 20.5761C24.4346 20.6518 24.2784 20.78 24.1685 20.9444C24.0586 21.1089 24 21.3022 24 21.5C24 21.7652 24.1054 22.0196 24.2929 22.2071C24.4804 22.3946 24.7348 22.5 25 22.5ZM20 22.5C20.1978 22.5 20.3911 22.4414 20.5556 22.3315C20.72 22.2216 20.8482 22.0654 20.9239 21.8827C20.9996 21.7 21.0194 21.4989 20.9808 21.3049C20.9422 21.1109 20.847 20.9327 20.7071 20.7929C20.5673 20.653 20.3891 20.5578 20.1951 20.5192C20.0011 20.4806 19.8 20.5004 19.6173 20.5761C19.4346 20.6518 19.2784 20.78 19.1685 20.9444C19.0586 21.1089 19 21.3022 19 21.5C19 21.7652 19.1054 22.0196 19.2929 22.2071C19.4804 22.3946 19.7348 22.5 20 22.5ZM27 10.5H26V9.5C26 9.23478 25.8946 8.98043 25.7071 8.79289C25.5196 8.60536 25.2652 8.5 25 8.5C24.7348 8.5 24.4804 8.60536 24.2929 8.79289C24.1054 8.98043 24 9.23478 24 9.5V10.5H16V9.5C16 9.23478 15.8946 8.98043 15.7071 8.79289C15.5196 8.60536 15.2652 8.5 15 8.5C14.7348 8.5 14.4804 8.60536 14.2929 8.79289C14.1054 8.98043 14 9.23478 14 9.5V10.5H13C12.2044 10.5 11.4413 10.8161 10.8787 11.3787C10.3161 11.9413 10 12.7044 10 13.5V27.5C10 28.2956 10.3161 29.0587 10.8787 29.6213C11.4413 30.1839 12.2044 30.5 13 30.5H27C27.7956 30.5 28.5587 30.1839 29.1213 29.6213C29.6839 29.0587 30 28.2956 30 27.5V13.5C30 12.7044 29.6839 11.9413 29.1213 11.3787C28.5587 10.8161 27.7956 10.5 27 10.5ZM28 27.5C28 27.7652 27.8946 28.0196 27.7071 28.2071C27.5196 28.3946 27.2652 28.5 27 28.5H13C12.7348 28.5 12.4804 28.3946 12.2929 28.2071C12.1054 28.0196 12 27.7652 12 27.5V18.5H28V27.5ZM28 16.5H12V13.5C12 13.2348 12.1054 12.9804 12.2929 12.7929C12.4804 12.6054 12.7348 12.5 13 12.5H14V13.5C14 13.7652 14.1054 14.0196 14.2929 14.2071C14.4804 14.3946 14.7348 14.5 15 14.5C15.2652 14.5 15.5196 14.3946 15.7071 14.2071C15.8946 14.0196 16 13.7652 16 13.5V12.5H24V13.5C24 13.7652 24.1054 14.0196 24.2929 14.2071C24.4804 14.3946 24.7348 14.5 25 14.5C25.2652 14.5 25.5196 14.3946 25.7071 14.2071C25.8946 14.0196 26 13.7652 26 13.5V12.5H27C27.2652 12.5 27.5196 12.6054 27.7071 12.7929C27.8946 12.9804 28 13.2348 28 13.5V16.5ZM15 22.5C15.1978 22.5 15.3911 22.4414 15.5556 22.3315C15.72 22.2216 15.8482 22.0654 15.9239 21.8827C15.9996 21.7 16.0194 21.4989 15.9808 21.3049C15.9422 21.1109 15.847 20.9327 15.7071 20.7929C15.5673 20.653 15.3891 20.5578 15.1951 20.5192C15.0011 20.4806 14.8 20.5004 14.6173 20.5761C14.4346 20.6518 14.2784 20.78 14.1685 20.9444C14.0586 21.1089 14 21.3022 14 21.5C14 21.7652 14.1054 22.0196 14.2929 22.2071C14.4804 22.3946 14.7348 22.5 15 22.5ZM15 26.5C15.1978 26.5 15.3911 26.4414 15.5556 26.3315C15.72 26.2216 15.8482 26.0654 15.9239 25.8827C15.9996 25.7 16.0194 25.4989 15.9808 25.3049C15.9422 25.1109 15.847 24.9327 15.7071 24.7929C15.5673 24.653 15.3891 24.5578 15.1951 24.5192C15.0011 24.4806 14.8 24.5004 14.6173 24.5761C14.4346 24.6518 14.2784 24.78 14.1685 24.9444C14.0586 25.1089 14 25.3022 14 25.5C14 25.7652 14.1054 26.0196 14.2929 26.2071C14.4804 26.3946 14.7348 26.5 15 26.5Z"/>
</mask>
<path d="M20 26.5C20.1978 26.5 20.3911 26.4414 20.5556 26.3315C20.72 26.2216 20.8482 26.0654 20.9239 25.8827C20.9996 25.7 21.0194 25.4989 20.9808 25.3049C20.9422 25.1109 20.847 24.9327 20.7071 24.7929C20.5673 24.653 20.3891 24.5578 20.1951 24.5192C20.0011 24.4806 19.8 24.5004 19.6173 24.5761C19.4346 24.6518 19.2784 24.78 19.1685 24.9444C19.0586 25.1089 19 25.3022 19 25.5C19 25.7652 19.1054 26.0196 19.2929 26.2071C19.4804 26.3946 19.7348 26.5 20 26.5ZM25 26.5C25.1978 26.5 25.3911 26.4414 25.5556 26.3315C25.72 26.2216 25.8482 26.0654 25.9239 25.8827C25.9996 25.7 26.0194 25.4989 25.9808 25.3049C25.9422 25.1109 25.847 24.9327 25.7071 24.7929C25.5673 24.653 25.3891 24.5578 25.1951 24.5192C25.0011 24.4806 24.8 24.5004 24.6173 24.5761C24.4346 24.6518 24.2784 24.78 24.1685 24.9444C24.0586 25.1089 24 25.3022 24 25.5C24 25.7652 24.1054 26.0196 24.2929 26.2071C24.4804 26.3946 24.7348 26.5 25 26.5ZM25 22.5C25.1978 22.5 25.3911 22.4414 25.5556 22.3315C25.72 22.2216 25.8482 22.0654 25.9239 21.8827C25.9996 21.7 26.0194 21.4989 25.9808 21.3049C25.9422 21.1109 25.847 20.9327 25.7071 20.7929C25.5673 20.653 25.3891 20.5578 25.1951 20.5192C25.0011 20.4806 24.8 20.5004 24.6173 20.5761C24.4346 20.6518 24.2784 20.78 24.1685 20.9444C24.0586 21.1089 24 21.3022 24 21.5C24 21.7652 24.1054 22.0196 24.2929 22.2071C24.4804 22.3946 24.7348 22.5 25 22.5ZM20 22.5C20.1978 22.5 20.3911 22.4414 20.5556 22.3315C20.72 22.2216 20.8482 22.0654 20.9239 21.8827C20.9996 21.7 21.0194 21.4989 20.9808 21.3049C20.9422 21.1109 20.847 20.9327 20.7071 20.7929C20.5673 20.653 20.3891 20.5578 20.1951 20.5192C20.0011 20.4806 19.8 20.5004 19.6173 20.5761C19.4346 20.6518 19.2784 20.78 19.1685 20.9444C19.0586 21.1089 19 21.3022 19 21.5C19 21.7652 19.1054 22.0196 19.2929 22.2071C19.4804 22.3946 19.7348 22.5 20 22.5ZM27 10.5H26V9.5C26 9.23478 25.8946 8.98043 25.7071 8.79289C25.5196 8.60536 25.2652 8.5 25 8.5C24.7348 8.5 24.4804 8.60536 24.2929 8.79289C24.1054 8.98043 24 9.23478 24 9.5V10.5H16V9.5C16 9.23478 15.8946 8.98043 15.7071 8.79289C15.5196 8.60536 15.2652 8.5 15 8.5C14.7348 8.5 14.4804 8.60536 14.2929 8.79289C14.1054 8.98043 14 9.23478 14 9.5V10.5H13C12.2044 10.5 11.4413 10.8161 10.8787 11.3787C10.3161 11.9413 10 12.7044 10 13.5V27.5C10 28.2956 10.3161 29.0587 10.8787 29.6213C11.4413 30.1839 12.2044 30.5 13 30.5H27C27.7956 30.5 28.5587 30.1839 29.1213 29.6213C29.6839 29.0587 30 28.2956 30 27.5V13.5C30 12.7044 29.6839 11.9413 29.1213 11.3787C28.5587 10.8161 27.7956 10.5 27 10.5ZM28 27.5C28 27.7652 27.8946 28.0196 27.7071 28.2071C27.5196 28.3946 27.2652 28.5 27 28.5H13C12.7348 28.5 12.4804 28.3946 12.2929 28.2071C12.1054 28.0196 12 27.7652 12 27.5V18.5H28V27.5ZM28 16.5H12V13.5C12 13.2348 12.1054 12.9804 12.2929 12.7929C12.4804 12.6054 12.7348 12.5 13 12.5H14V13.5C14 13.7652 14.1054 14.0196 14.2929 14.2071C14.4804 14.3946 14.7348 14.5 15 14.5C15.2652 14.5 15.5196 14.3946 15.7071 14.2071C15.8946 14.0196 16 13.7652 16 13.5V12.5H24V13.5C24 13.7652 24.1054 14.0196 24.2929 14.2071C24.4804 14.3946 24.7348 14.5 25 14.5C25.2652 14.5 25.5196 14.3946 25.7071 14.2071C25.8946 14.0196 26 13.7652 26 13.5V12.5H27C27.2652 12.5 27.5196 12.6054 27.7071 12.7929C27.8946 12.9804 28 13.2348 28 13.5V16.5ZM15 22.5C15.1978 22.5 15.3911 22.4414 15.5556 22.3315C15.72 22.2216 15.8482 22.0654 15.9239 21.8827C15.9996 21.7 16.0194 21.4989 15.9808 21.3049C15.9422 21.1109 15.847 20.9327 15.7071 20.7929C15.5673 20.653 15.3891 20.5578 15.1951 20.5192C15.0011 20.4806 14.8 20.5004 14.6173 20.5761C14.4346 20.6518 14.2784 20.78 14.1685 20.9444C14.0586 21.1089 14 21.3022 14 21.5C14 21.7652 14.1054 22.0196 14.2929 22.2071C14.4804 22.3946 14.7348 22.5 15 22.5ZM15 26.5C15.1978 26.5 15.3911 26.4414 15.5556 26.3315C15.72 26.2216 15.8482 26.0654 15.9239 25.8827C15.9996 25.7 16.0194 25.4989 15.9808 25.3049C15.9422 25.1109 15.847 24.9327 15.7071 24.7929C15.5673 24.653 15.3891 24.5578 15.1951 24.5192C15.0011 24.4806 14.8 24.5004 14.6173 24.5761C14.4346 24.6518 14.2784 24.78 14.1685 24.9444C14.0586 25.1089 14 25.3022 14 25.5C14 25.7652 14.1054 26.0196 14.2929 26.2071C14.4804 26.3946 14.7348 26.5 15 26.5Z" stroke="#3772FF" stroke-width="2" mask="url(#path-2-inside-1_3653_9359)"/>
</svg>
