<svg width="14" height="14" viewBox="0 0 14 14" fill="none" xmlns="http://www.w3.org/2000/svg">
<path d="M11.6666 0.332031H2.33325C1.80282 0.332031 1.29411 0.542745 0.919039 0.917818C0.543966 1.29289 0.333252 1.8016 0.333252 2.33203V3.11203C0.333156 3.38733 0.389896 3.65968 0.499919 3.91203V3.95203C0.594105 4.16601 0.727514 4.36047 0.893252 4.52536L4.99992 8.60536V12.9987C4.99969 13.112 5.02834 13.2235 5.08317 13.3226C5.13799 13.4218 5.21718 13.5053 5.31325 13.5654C5.41935 13.6311 5.54177 13.6658 5.66659 13.6654C5.77095 13.6647 5.8737 13.6396 5.96659 13.592L8.63325 12.2587C8.7432 12.2033 8.83565 12.1185 8.90037 12.0138C8.96509 11.9091 8.99955 11.7885 8.99992 11.6654V8.60536L13.0799 4.52536C13.2457 4.36047 13.3791 4.16601 13.4733 3.95203V3.91203C13.5925 3.66165 13.6583 3.38922 13.6666 3.11203V2.33203C13.6666 1.8016 13.4559 1.29289 13.0808 0.917818C12.7057 0.542745 12.197 0.332031 11.6666 0.332031ZM7.85992 7.8587C7.79813 7.92099 7.74925 7.99487 7.71607 8.07609C7.6829 8.15732 7.66608 8.24429 7.66659 8.33203V11.252L6.33325 11.9187V8.33203C6.33376 8.24429 6.31694 8.15732 6.28377 8.07609C6.25059 7.99487 6.20171 7.92099 6.13992 7.8587L2.60659 4.33203H11.3933L7.85992 7.8587ZM12.3333 2.9987H1.66659V2.33203C1.66659 2.15522 1.73682 1.98565 1.86185 1.86063C1.98687 1.7356 2.15644 1.66536 2.33325 1.66536H11.6666C11.8434 1.66536 12.013 1.7356 12.138 1.86063C12.263 1.98565 12.3333 2.15522 12.3333 2.33203V2.9987Z" fill="#757886"/>
</svg>
