<svg width="14" height="14" viewBox="0 0 14 14" fill="none" xmlns="http://www.w3.org/2000/svg">
<path d="M4.80659 4.13928L6.33325 2.60595V8.99928C6.33325 9.17609 6.40349 9.34566 6.52851 9.47068C6.65354 9.59571 6.82311 9.66595 6.99992 9.66595C7.17673 9.66595 7.3463 9.59571 7.47132 9.47068C7.59635 9.34566 7.66659 9.17609 7.66659 8.99928V2.60595L9.19325 4.13928C9.25523 4.20177 9.32896 4.25136 9.4102 4.28521C9.49144 4.31905 9.57858 4.33648 9.66659 4.33648C9.75459 4.33648 9.84173 4.31905 9.92297 4.28521C10.0042 4.25136 10.0779 4.20177 10.1399 4.13928C10.2024 4.0773 10.252 4.00357 10.2858 3.92233C10.3197 3.84109 10.3371 3.75395 10.3371 3.66595C10.3371 3.57794 10.3197 3.4908 10.2858 3.40956C10.252 3.32832 10.2024 3.25459 10.1399 3.19261L7.47325 0.525947C7.40985 0.465253 7.33509 0.417676 7.25325 0.385947C7.09094 0.319268 6.90889 0.319268 6.74659 0.385947C6.66475 0.417676 6.58999 0.465253 6.52659 0.525947L3.85992 3.19261C3.79776 3.25477 3.74845 3.32857 3.71481 3.40978C3.68117 3.491 3.66386 3.57804 3.66386 3.66595C3.66386 3.75385 3.68117 3.8409 3.71481 3.92211C3.74845 4.00333 3.79776 4.07712 3.85992 4.13928C3.92208 4.20144 3.99587 4.25075 4.07709 4.28439C4.1583 4.31803 4.24535 4.33534 4.33325 4.33534C4.42116 4.33534 4.5082 4.31803 4.58942 4.28439C4.67063 4.25075 4.74443 4.20144 4.80659 4.13928ZM12.9999 8.33261C12.8231 8.33261 12.6535 8.40285 12.5285 8.52788C12.4035 8.6529 12.3333 8.82247 12.3333 8.99928V11.6659C12.3333 11.8428 12.263 12.0123 12.138 12.1374C12.013 12.2624 11.8434 12.3326 11.6666 12.3326H2.33325C2.15644 12.3326 1.98687 12.2624 1.86185 12.1374C1.73682 12.0123 1.66659 11.8428 1.66659 11.6659V8.99928C1.66659 8.82247 1.59635 8.6529 1.47132 8.52788C1.3463 8.40285 1.17673 8.33261 0.999919 8.33261C0.823108 8.33261 0.653538 8.40285 0.528514 8.52788C0.40349 8.6529 0.333252 8.82247 0.333252 8.99928V11.6659C0.333252 12.1964 0.543966 12.7051 0.919038 13.0802C1.29411 13.4552 1.80282 13.6659 2.33325 13.6659H11.6666C12.197 13.6659 12.7057 13.4552 13.0808 13.0802C13.4559 12.7051 13.6666 12.1964 13.6666 11.6659V8.99928C13.6666 8.82247 13.5963 8.6529 13.4713 8.52788C13.3463 8.40285 13.1767 8.33261 12.9999 8.33261Z" fill="#353945"/>
</svg>
