<svg width="143" height="116" viewBox="0 0 143 116" fill="none" xmlns="http://www.w3.org/2000/svg">
<path d="M71.3 101.651C99.3 101.651 122 78.9508 122 50.8508C122 22.7508 99.3 0.0507812 71.3 0.0507812C43.3 0.0507812 20.6 22.7508 20.6 50.8508C20.6 78.9508 43.3 101.651 71.3 101.651Z" fill="#EAEEF9"/>
<path d="M127.8 29.95C130.064 29.95 131.9 28.1144 131.9 25.85C131.9 23.5856 130.064 21.75 127.8 21.75C125.536 21.75 123.7 23.5856 123.7 25.85C123.7 28.1144 125.536 29.95 127.8 29.95Z" fill="#EAEEF9"/>
<path d="M133.8 13.85C135.346 13.85 136.6 12.5964 136.6 11.05C136.6 9.5036 135.346 8.25 133.8 8.25C132.254 8.25 131 9.5036 131 11.05C131 12.5964 132.254 13.85 133.8 13.85Z" fill="#EAEEF9"/>
<path d="M17.2 32.85C18.7464 32.85 20 31.5964 20 30.05C20 28.5036 18.7464 27.25 17.2 27.25C15.6536 27.25 14.4 28.5036 14.4 30.05C14.4 31.5964 15.6536 32.85 17.2 32.85Z" fill="#EAEEF9"/>
<path d="M22.4 93.7516C25.2719 93.7516 27.6 91.4234 27.6 88.5516C27.6 85.6797 25.2719 83.3516 22.4 83.3516C19.5281 83.3516 17.2 85.6797 17.2 88.5516C17.2 91.4234 19.5281 93.7516 22.4 93.7516Z" fill="#EAEEF9"/>
<g filter="url(#filter0_d_1305_34473)">
<path d="M111.616 82.9202H31.1836C26.2899 82.9202 22.4 79.0303 22.4 74.1366V27.8344C22.4 22.9407 26.2899 19.0508 31.1836 19.0508H111.616C116.51 19.0508 120.4 22.9407 120.4 27.8344V74.1366C120.4 79.0303 116.51 82.9202 111.616 82.9202Z" fill="url(#paint0_linear_1305_34473)"/>
</g>
<path d="M109.358 68.488H96.5588C95.4295 68.488 94.5511 67.6097 94.5511 66.4803C94.5511 65.351 95.4295 64.4727 96.5588 64.4727H109.358C110.487 64.4727 111.365 65.351 111.365 66.4803C111.365 67.6097 110.487 68.488 109.358 68.488Z" fill="#D5DDEA"/>
<path d="M48.3744 46.7834H34.3207C33.3168 46.7834 32.4385 45.905 32.4385 44.9011V35.8666C32.4385 34.8627 33.3168 33.9844 34.3207 33.9844H48.249C49.2528 33.9844 50.1312 34.8627 50.1312 35.8666V44.9011C50.2566 45.905 49.3783 46.7834 48.3744 46.7834Z" fill="#D5DDEA"/>
<path d="M128.113 83.6934C127.713 85.3934 127.113 87.1934 126.413 88.6934C124.513 92.3934 121.513 95.2934 117.813 97.1934C114.013 99.0934 109.513 99.8934 105.013 98.8934C94.4134 96.6934 87.6134 86.2934 89.8134 75.6934C92.0134 65.0934 102.313 58.1934 112.913 60.4934C116.713 61.2934 120.013 63.1934 122.813 65.7934C127.513 70.4934 129.513 77.2934 128.113 83.6934Z" fill="url(#paint1_linear_1305_34473)"/>
<path d="M115.213 77.993H110.713V73.493C110.713 72.593 110.013 71.793 109.013 71.793C108.113 71.793 107.313 72.493 107.313 73.493V77.993H102.813C101.913 77.993 101.113 78.693 101.113 79.693C101.113 80.693 101.813 81.393 102.813 81.393H107.313V85.893C107.313 86.793 108.013 87.593 109.013 87.593C109.913 87.593 110.713 86.893 110.713 85.893V81.393H115.213C116.113 81.393 116.913 80.693 116.913 79.693C116.913 78.693 116.113 77.993 115.213 77.993Z" fill="white"/>
<defs>
<filter id="filter0_d_1305_34473" x="0.400009" y="8.05078" width="142" height="107.871" filterUnits="userSpaceOnUse" color-interpolation-filters="sRGB">
<feFlood flood-opacity="0" result="BackgroundImageFix"/>
<feColorMatrix in="SourceAlpha" type="matrix" values="0 0 0 0 0 0 0 0 0 0 0 0 0 0 0 0 0 0 127 0" result="hardAlpha"/>
<feOffset dy="11"/>
<feGaussianBlur stdDeviation="11"/>
<feColorMatrix type="matrix" values="0 0 0 0 0.397708 0 0 0 0 0.47749 0 0 0 0 0.575 0 0 0 0.27 0"/>
<feBlend mode="normal" in2="BackgroundImageFix" result="effect1_dropShadow_1305_34473"/>
<feBlend mode="normal" in="SourceGraphic" in2="effect1_dropShadow_1305_34473" result="shape"/>
</filter>
<linearGradient id="paint0_linear_1305_34473" x1="71.3681" y1="17.5734" x2="71.3681" y2="83.6087" gradientUnits="userSpaceOnUse">
<stop stop-color="#FDFEFF"/>
<stop offset="0.9964" stop-color="#ECF0F5"/>
</linearGradient>
<linearGradient id="paint1_linear_1305_34473" x1="89.3821" y1="79.6929" x2="128.559" y2="79.6929" gradientUnits="userSpaceOnUse">
<stop stop-color="#B0BACC"/>
<stop offset="1" stop-color="#969EAE"/>
</linearGradient>
</defs>
</svg>
