<svg width="90" height="25" viewBox="0 0 90 25" fill="none" xmlns="http://www.w3.org/2000/svg">
<circle cx="8" cy="12.5" r="8" fill="#EB5757"/>
<circle opacity="0.8" cx="19.5" cy="12.5" r="8" fill="#F2994A"/>
<circle opacity="0.8" cx="31" cy="12.5" r="8" fill="#219653"/>
<path d="M58.02 9.14C57.7 7.56 56.4 5.52 53.06 5.52C50.42 5.52 48.24 7.48 48.24 9.86C48.24 11.98 49.68 13.4 51.84 13.84L53.84 14.26C55.06 14.52 55.74 15.26 55.74 16.18C55.74 17.28 54.86 18.14 53.16 18.14C51.12 18.14 50.06 16.78 49.92 15.3L47.68 15.94C47.9 17.98 49.56 20.3 53.16 20.3C56.4 20.3 58.18 18.2 58.18 16C58.18 14 56.84 12.42 54.34 11.92L52.3 11.5C51.2 11.26 50.64 10.58 50.64 9.68C50.64 8.6 51.64 7.64 53.08 7.64C54.98 7.64 55.72 8.94 55.86 9.82L58.02 9.14ZM76.2727 20V5.82H73.0127L68.4727 16.64L63.8727 5.82H60.6727V20H63.0127V9.6L67.3927 20H69.4727L73.8927 9.56V20H76.2727ZM88.9966 9.14C88.6766 7.56 87.3766 5.52 84.0366 5.52C81.3966 5.52 79.2166 7.48 79.2166 9.86C79.2166 11.98 80.6566 13.4 82.8166 13.84L84.8166 14.26C86.0366 14.52 86.7166 15.26 86.7166 16.18C86.7166 17.28 85.8366 18.14 84.1366 18.14C82.0966 18.14 81.0366 16.78 80.8966 15.3L78.6566 15.94C78.8766 17.98 80.5366 20.3 84.1366 20.3C87.3766 20.3 89.1566 18.2 89.1566 16C89.1566 14 87.8166 12.42 85.3166 11.92L83.2766 11.5C82.1766 11.26 81.6166 10.58 81.6166 9.68C81.6166 8.6 82.6166 7.64 84.0566 7.64C85.9566 7.64 86.6966 8.94 86.8366 9.82L88.9966 9.14Z" fill="#080730"/>
</svg>
