<svg width="40" height="40" viewBox="0 0 40 40" fill="none" xmlns="http://www.w3.org/2000/svg">
<g opacity="0.6">
<rect width="40" height="40" rx="8" fill="#FF6838" fill-opacity="0.1"/>
<path d="M29 19C29.0034 20.3199 28.6951 21.6219 28.1 22.8C27.3944 24.2118 26.3098 25.3992 24.9674 26.2293C23.6251 27.0594 22.0782 27.4994 20.5 27.5C19.1801 27.5035 17.8781 27.1951 16.7 26.6L11 28.5L12.9 22.8C12.3049 21.6219 11.9966 20.3199 12 19C12.0006 17.4218 12.4406 15.8749 13.2707 14.5326C14.1008 13.1903 15.2883 12.1056 16.7 11.4C17.8781 10.805 19.1801 10.4966 20.5 10.5H21C23.0843 10.615 25.053 11.4948 26.5291 12.9709C28.0052 14.447 28.885 16.4157 29 18.5V19Z" stroke="#FF6838" stroke-width="2" stroke-linecap="round" stroke-linejoin="round"/>
</g>
</svg>
