<svg width="14" height="14" viewBox="0 0 14 14" fill="none" xmlns="http://www.w3.org/2000/svg">
<path d="M3.66659 5.66536C3.53473 5.66536 3.40584 5.70446 3.29621 5.77772C3.18657 5.85097 3.10112 5.95509 3.05067 6.07691C3.00021 6.19873 2.987 6.33277 3.01273 6.46209C3.03845 6.59141 3.10195 6.7102 3.19518 6.80344C3.28842 6.89667 3.4072 6.96017 3.53653 6.98589C3.66585 7.01161 3.79989 6.99841 3.92171 6.94795C4.04352 6.89749 4.14764 6.81204 4.2209 6.70241C4.29415 6.59278 4.33325 6.46389 4.33325 6.33203C4.33325 6.15522 4.26301 5.98565 4.13799 5.86063C4.01297 5.7356 3.8434 5.66536 3.66659 5.66536ZM11.6666 2.9987H10.9999V0.998698C10.9999 0.821887 10.9297 0.652318 10.8047 0.527293C10.6796 0.402269 10.5101 0.332031 10.3333 0.332031H3.66659C3.48977 0.332031 3.32021 0.402269 3.19518 0.527293C3.07016 0.652318 2.99992 0.821887 2.99992 0.998698V2.9987H2.33325C1.80282 2.9987 1.29411 3.20941 0.919038 3.58448C0.543966 3.95956 0.333252 4.46827 0.333252 4.9987V8.9987C0.333252 9.52913 0.543966 10.0378 0.919038 10.4129C1.29411 10.788 1.80282 10.9987 2.33325 10.9987H2.99992V12.9987C2.99992 13.1755 3.07016 13.3451 3.19518 13.4701C3.32021 13.5951 3.48977 13.6654 3.66659 13.6654H10.3333C10.5101 13.6654 10.6796 13.5951 10.8047 13.4701C10.9297 13.3451 10.9999 13.1755 10.9999 12.9987V10.9987H11.6666C12.197 10.9987 12.7057 10.788 13.0808 10.4129C13.4559 10.0378 13.6666 9.52913 13.6666 8.9987V4.9987C13.6666 4.46827 13.4559 3.95956 13.0808 3.58448C12.7057 3.20941 12.197 2.9987 11.6666 2.9987ZM4.33325 1.66536H9.66659V2.9987H4.33325V1.66536ZM9.66659 12.332H4.33325V9.66537H9.66659V12.332ZM12.3333 8.9987C12.3333 9.17551 12.263 9.34508 12.138 9.4701C12.013 9.59513 11.8434 9.66537 11.6666 9.66537H10.9999V8.9987C10.9999 8.82189 10.9297 8.65232 10.8047 8.52729C10.6796 8.40227 10.5101 8.33203 10.3333 8.33203H3.66659C3.48977 8.33203 3.32021 8.40227 3.19518 8.52729C3.07016 8.65232 2.99992 8.82189 2.99992 8.9987V9.66537H2.33325C2.15644 9.66537 1.98687 9.59513 1.86185 9.4701C1.73682 9.34508 1.66659 9.17551 1.66659 8.9987V4.9987C1.66659 4.82189 1.73682 4.65232 1.86185 4.52729C1.98687 4.40227 2.15644 4.33203 2.33325 4.33203H11.6666C11.8434 4.33203 12.013 4.40227 12.138 4.52729C12.263 4.65232 12.3333 4.82189 12.3333 4.9987V8.9987Z" fill="#353945"/>
</svg>
