<svg width="315" height="318" viewBox="0 0 315 318" fill="none" xmlns="http://www.w3.org/2000/svg">
<g filter="url(#filter0_bd_166_1492)">
<rect x="48.3566" y="32" width="218.287" height="221.66" rx="10.0142" fill="white"/>
<path d="M79.9446 62.328L78.7126 62.762C78.6472 62.3327 78.4372 61.9453 78.0826 61.6C77.7279 61.2453 77.2379 61.068 76.6126 61.068C76.0619 61.068 75.6046 61.2267 75.2406 61.544C74.8766 61.8613 74.6946 62.2533 74.6946 62.72C74.6946 63.084 74.8019 63.392 75.0166 63.644C75.2406 63.896 75.5579 64.0687 75.9686 64.162L77.4526 64.484C78.2739 64.6613 78.9086 64.9973 79.3566 65.492C79.8046 65.9773 80.0286 66.57 80.0286 67.27C80.0286 68.0727 79.7112 68.7633 79.0766 69.342C78.4419 69.9207 77.6159 70.21 76.5986 70.21C75.4879 70.21 74.6152 69.9207 73.9806 69.342C73.3552 68.754 72.9912 68.0587 72.8886 67.256L74.2046 66.836C74.2606 67.4333 74.4939 67.9373 74.9046 68.348C75.3152 68.7587 75.8752 68.964 76.5846 68.964C77.2379 68.964 77.7419 68.8147 78.0966 68.516C78.4512 68.2173 78.6286 67.8393 78.6286 67.382C78.6286 67.0087 78.5026 66.6867 78.2506 66.416C77.9986 66.136 77.6299 65.9447 77.1446 65.842L75.7306 65.534C74.9932 65.3753 74.4052 65.0627 73.9666 64.596C73.5279 64.1293 73.3086 63.5367 73.3086 62.818C73.3086 62.034 73.6259 61.348 74.2606 60.76C74.9046 60.1627 75.6792 59.864 76.5846 59.864C77.6019 59.864 78.3812 60.1113 78.9226 60.606C79.4639 61.1007 79.8046 61.6747 79.9446 62.328ZM83.4027 61.138V63.266H84.8587V64.456H83.4027V67.956C83.4027 68.2733 83.4727 68.5067 83.6127 68.656C83.762 68.8053 84.0047 68.88 84.3407 68.88C84.5367 68.88 84.7093 68.8613 84.8587 68.824V69.944C84.6347 70.028 84.336 70.07 83.9627 70.07C83.384 70.07 82.9267 69.902 82.5907 69.566C82.2547 69.23 82.0867 68.7587 82.0867 68.152V64.456H80.7987V63.266H81.1627C81.508 63.266 81.7647 63.1727 81.9327 62.986C82.11 62.79 82.1987 62.538 82.1987 62.23V61.138H83.4027ZM91.0532 69.188C90.8759 69.524 90.6052 69.7807 90.2412 69.958C89.8772 70.126 89.4852 70.21 89.0652 70.21C88.2999 70.21 87.6886 69.958 87.2312 69.454C86.7739 68.9407 86.5452 68.292 86.5452 67.508V63.266H87.8612V67.312C87.8612 67.816 87.9826 68.2313 88.2252 68.558C88.4772 68.8847 88.8646 69.048 89.3872 69.048C89.9099 69.048 90.3066 68.894 90.5772 68.586C90.8479 68.2687 90.9832 67.8487 90.9832 67.326V63.266H92.2992V68.754C92.2992 69.1927 92.3226 69.608 92.3692 70H91.1092C91.0719 69.7947 91.0532 69.524 91.0532 69.188ZM95.2606 66.612C95.2606 67.3213 95.4332 67.9 95.7786 68.348C96.1332 68.796 96.6186 69.02 97.2346 69.02C97.8226 69.02 98.2939 68.7913 98.6486 68.334C99.0032 67.8767 99.1806 67.2933 99.1806 66.584C99.1806 65.884 99.0079 65.3193 98.6626 64.89C98.3172 64.4607 97.8459 64.246 97.2486 64.246C96.6512 64.246 96.1706 64.4653 95.8066 64.904C95.4426 65.3427 95.2606 65.912 95.2606 66.612ZM99.1946 69.09V68.978C99.0172 69.3233 98.7466 69.6127 98.3826 69.846C98.0279 70.07 97.6032 70.182 97.1086 70.182C96.1472 70.182 95.3726 69.846 94.7846 69.174C94.2059 68.4927 93.9166 67.6387 93.9166 66.612C93.9166 65.632 94.2152 64.8013 94.8126 64.12C95.4099 63.4293 96.1752 63.084 97.1086 63.084C97.6592 63.084 98.1072 63.196 98.4526 63.42C98.7979 63.6347 99.0359 63.9007 99.1666 64.218V59.864H100.469V68.754C100.469 69.2113 100.492 69.6267 100.539 70H99.2646C99.2179 69.7387 99.1946 69.4353 99.1946 69.09ZM103.561 65.94H107.243C107.224 65.436 107.056 65.0253 106.739 64.708C106.422 64.3813 105.974 64.218 105.395 64.218C104.872 64.218 104.443 64.3907 104.107 64.736C103.771 65.072 103.589 65.4733 103.561 65.94ZM107.439 67.69L108.573 68.082C108.377 68.7073 108.013 69.2207 107.481 69.622C106.949 70.014 106.305 70.21 105.549 70.21C104.606 70.21 103.804 69.888 103.141 69.244C102.488 68.5907 102.161 67.7133 102.161 66.612C102.161 65.5853 102.478 64.736 103.113 64.064C103.748 63.392 104.504 63.056 105.381 63.056C106.398 63.056 107.192 63.378 107.761 64.022C108.33 64.6567 108.615 65.5107 108.615 66.584C108.615 66.752 108.606 66.892 108.587 67.004H103.519C103.528 67.6013 103.724 68.0913 104.107 68.474C104.499 68.8567 104.98 69.048 105.549 69.048C106.51 69.048 107.14 68.5953 107.439 67.69ZM111.611 66.108V70H110.295V63.266H111.583V64.232C112.031 63.4573 112.722 63.07 113.655 63.07C114.43 63.07 115.022 63.3173 115.433 63.812C115.853 64.3067 116.063 64.946 116.063 65.73V70H114.747V65.954C114.747 64.8247 114.224 64.26 113.179 64.26C112.684 64.26 112.297 64.4373 112.017 64.792C111.746 65.1373 111.611 65.576 111.611 66.108ZM119.92 61.138V63.266H121.376V64.456H119.92V67.956C119.92 68.2733 119.99 68.5067 120.13 68.656C120.28 68.8053 120.522 68.88 120.858 68.88C121.054 68.88 121.227 68.8613 121.376 68.824V69.944C121.152 70.028 120.854 70.07 120.48 70.07C119.902 70.07 119.444 69.902 119.108 69.566C118.772 69.23 118.604 68.7587 118.604 68.152V64.456H117.316V63.266H117.68C118.026 63.266 118.282 63.1727 118.45 62.986C118.628 62.79 118.716 62.538 118.716 62.23V61.138H119.92ZM122.571 68.25L123.761 67.83C123.808 68.194 123.967 68.4973 124.237 68.74C124.508 68.9733 124.872 69.09 125.329 69.09C125.684 69.09 125.964 69.006 126.169 68.838C126.375 68.6607 126.477 68.446 126.477 68.194C126.477 67.746 126.188 67.4567 125.609 67.326L124.461 67.074C123.939 66.962 123.528 66.738 123.229 66.402C122.931 66.066 122.781 65.66 122.781 65.184C122.781 64.6053 123.015 64.106 123.481 63.686C123.957 63.266 124.522 63.056 125.175 63.056C125.605 63.056 125.987 63.1213 126.323 63.252C126.659 63.3733 126.921 63.5367 127.107 63.742C127.294 63.9473 127.434 64.1387 127.527 64.316C127.621 64.4933 127.691 64.6753 127.737 64.862L126.575 65.296C126.557 65.184 126.524 65.0767 126.477 64.974C126.431 64.862 126.356 64.7407 126.253 64.61C126.16 64.4793 126.02 64.3767 125.833 64.302C125.647 64.218 125.427 64.176 125.175 64.176C124.849 64.176 124.578 64.2647 124.363 64.442C124.158 64.6193 124.055 64.8293 124.055 65.072C124.055 65.5013 124.312 65.772 124.825 65.884L125.917 66.122C126.515 66.2527 126.972 66.4953 127.289 66.85C127.616 67.1953 127.779 67.62 127.779 68.124C127.779 68.656 127.56 69.1367 127.121 69.566C126.692 69.9953 126.09 70.21 125.315 70.21C124.485 70.21 123.836 70.0047 123.369 69.594C122.903 69.174 122.637 68.726 122.571 68.25Z" fill="#23262F"/>
<rect x="72.3566" y="98" width="27.8868" height="27.8868" rx="13.9434" fill="#ECECEC"/>
<rect x="111.398" y="102.893" width="131.245" height="6.24978" rx="3.12489" fill="#F4F8FD"/>
<rect x="111.398" y="114.72" width="50.1962" height="6.27453" rx="3.13726" fill="#EFF1F2"/>
<rect x="72.3566" y="149.887" width="27.8868" height="27.8868" rx="13.9434" fill="#ECECEC"/>
<rect x="111.398" y="154.779" width="131.245" height="6.24978" rx="3.12489" fill="#F4F8FD"/>
<rect x="111.398" y="166.607" width="50.1962" height="6.27453" rx="3.13726" fill="#EFF1F2"/>
<rect x="72.3566" y="201.774" width="27.8868" height="27.8868" rx="13.9434" fill="#ECECEC"/>
<rect x="111.398" y="206.666" width="131.245" height="6.24978" rx="3.12489" fill="#F4F8FD"/>
<rect x="111.398" y="218.493" width="50.1962" height="6.27453" rx="3.13726" fill="#EFF1F2"/>
</g>
<defs>
<filter id="filter0_bd_166_1492" x="0.356567" y="0" width="314.287" height="317.66" filterUnits="userSpaceOnUse" color-interpolation-filters="sRGB">
<feFlood flood-opacity="0" result="BackgroundImageFix"/>
<feGaussianBlur in="BackgroundImage" stdDeviation="8"/>
<feComposite in2="SourceAlpha" operator="in" result="effect1_backgroundBlur_166_1492"/>
<feColorMatrix in="SourceAlpha" type="matrix" values="0 0 0 0 0 0 0 0 0 0 0 0 0 0 0 0 0 0 127 0" result="hardAlpha"/>
<feMorphology radius="8" operator="dilate" in="SourceAlpha" result="effect2_dropShadow_166_1492"/>
<feOffset dy="16"/>
<feGaussianBlur stdDeviation="20"/>
<feColorMatrix type="matrix" values="0 0 0 0 0.704002 0 0 0 0 0.839375 0 0 0 0 0.937404 0 0 0 0.06 0"/>
<feBlend mode="multiply" in2="effect1_backgroundBlur_166_1492" result="effect2_dropShadow_166_1492"/>
<feBlend mode="normal" in="SourceGraphic" in2="effect2_dropShadow_166_1492" result="shape"/>
</filter>
</defs>
</svg>
