<svg width="40" height="40" viewBox="0 0 40 40" fill="none" xmlns="http://www.w3.org/2000/svg">
<rect width="40" height="40" rx="8" fill="#1CBF7D" fill-opacity="0.1"/>
<g clip-path="url(#clip0_3653_9351)">
<path d="M23.05 12.5C24.0267 12.6906 24.9244 13.1683 25.6281 13.8719C26.3317 14.5756 26.8094 15.4733 27 16.45M23.05 8.5C25.0793 8.72544 26.9716 9.63417 28.4162 11.077C29.8609 12.5198 30.772 14.411 31 16.44M30 24.42V27.42C30.0011 27.6985 29.9441 27.9742 29.8325 28.2293C29.7209 28.4845 29.5573 28.7136 29.3521 28.9019C29.1468 29.0901 28.9046 29.2335 28.6407 29.3227C28.3769 29.4119 28.0974 29.4451 27.82 29.42C24.7428 29.0856 21.787 28.0341 19.19 26.35C16.7738 24.8147 14.7253 22.7662 13.19 20.35C11.5 17.7412 10.4482 14.771 10.12 11.68C10.095 11.4035 10.1279 11.1248 10.2165 10.8616C10.3051 10.5985 10.4476 10.3567 10.6348 10.1516C10.822 9.94655 11.0498 9.78271 11.3038 9.67052C11.5578 9.55833 11.8323 9.50026 12.11 9.5H15.11C15.5953 9.49522 16.0658 9.66708 16.4338 9.98353C16.8017 10.3 17.0421 10.7394 17.11 11.22C17.2366 12.1801 17.4714 13.1227 17.81 14.03C17.9445 14.3879 17.9737 14.7769 17.8939 15.1509C17.8141 15.5248 17.6289 15.8681 17.36 16.14L16.09 17.41C17.5135 19.9135 19.5864 21.9864 22.09 23.41L23.36 22.14C23.6319 21.8711 23.9751 21.6858 24.3491 21.6061C24.7231 21.5263 25.1121 21.5555 25.47 21.69C26.3773 22.0286 27.3199 22.2634 28.28 22.39C28.7658 22.4585 29.2094 22.7032 29.5265 23.0775C29.8437 23.4518 30.0122 23.9296 30 24.42Z" stroke="#1CBF7D" stroke-width="2" stroke-linecap="round" stroke-linejoin="round"/>
</g>
<defs>
<clipPath id="clip0_3653_9351">
<rect width="24" height="24" fill="white" transform="translate(8 7.5)"/>
</clipPath>
</defs>
</svg>

